<?xml version="1.0" encoding="UTF-8" standalone="no"?>
<!DOCTYPE svg PUBLIC "-//W3C//DTD SVG 1.1//EN"
 "http://www.w3.org/Graphics/SVG/1.1/DTD/svg11.dtd">
<!-- Generated by graphviz version 2.43.0 (0)
 -->
<!-- Title: %3 Pages: 1 -->
<svg width="494pt" height="548pt"
 viewBox="0.00 0.00 494.00 548.00" xmlns="http://www.w3.org/2000/svg" xmlns:xlink="http://www.w3.org/1999/xlink">
<g id="graph0" class="graph" transform="scale(1 1) rotate(0) translate(4 544)">
<title>%3</title>
<polygon fill="white" stroke="transparent" points="-4,4 -4,-544 490,-544 490,4 -4,4"/>
<!-- node_5040000002D0 -->
<g id="node1" class="node">
<title>node_5040000002D0</title>
<ellipse fill="#f5b041" stroke="black" cx="207" cy="-522" rx="27" ry="18"/>
<text text-anchor="middle" x="207" y="-518.3" font-family="Times,serif" font-size="14.00">;</text>
</g>
<!-- node_504000000150 -->
<g id="node2" class="node">
<title>node_504000000150</title>
<ellipse fill="#f5b041" stroke="black" cx="171" cy="-450" rx="27" ry="18"/>
<text text-anchor="middle" x="171" y="-446.3" font-family="Times,serif" font-size="14.00">;</text>
</g>
<!-- node_5040000002D0&#45;&gt;node_504000000150 -->
<g id="edge1" class="edge">
<title>node_5040000002D0&#45;&gt;node_504000000150</title>
<path fill="none" stroke="black" d="M198.65,-504.76C194.29,-496.28 188.85,-485.71 183.96,-476.2"/>
<polygon fill="black" stroke="black" points="186.99,-474.44 179.3,-467.15 180.77,-477.64 186.99,-474.44"/>
</g>
<!-- node_504000000310 -->
<g id="node13" class="node">
<title>node_504000000310</title>
<ellipse fill="#f5b041" stroke="black" cx="243" cy="-450" rx="27" ry="18"/>
<text text-anchor="middle" x="243" y="-446.3" font-family="Times,serif" font-size="14.00">if</text>
</g>
<!-- node_5040000002D0&#45;&gt;node_504000000310 -->
<g id="edge12" class="edge">
<title>node_5040000002D0&#45;&gt;node_504000000310</title>
<path fill="none" stroke="black" d="M215.35,-504.76C219.71,-496.28 225.15,-485.71 230.04,-476.2"/>
<polygon fill="black" stroke="black" points="233.23,-477.64 234.7,-467.15 227.01,-474.44 233.23,-477.64"/>
</g>
<!-- node_504000000050 -->
<g id="node3" class="node">
<title>node_504000000050</title>
<ellipse fill="#f5b041" stroke="black" cx="99" cy="-378" rx="27" ry="18"/>
<text text-anchor="middle" x="99" y="-374.3" font-family="Times,serif" font-size="14.00">:=</text>
</g>
<!-- node_504000000150&#45;&gt;node_504000000050 -->
<g id="edge2" class="edge">
<title>node_504000000150&#45;&gt;node_504000000050</title>
<path fill="none" stroke="black" d="M156.43,-434.83C146.25,-424.94 132.48,-411.55 120.97,-400.36"/>
<polygon fill="black" stroke="black" points="123.41,-397.85 113.8,-393.38 118.53,-402.87 123.41,-397.85"/>
</g>
<!-- node_5040000001D0 -->
<g id="node8" class="node">
<title>node_5040000001D0</title>
<ellipse fill="#f5b041" stroke="black" cx="171" cy="-378" rx="27" ry="18"/>
<text text-anchor="middle" x="171" y="-374.3" font-family="Times,serif" font-size="14.00">:=</text>
</g>
<!-- node_504000000150&#45;&gt;node_5040000001D0 -->
<g id="edge7" class="edge">
<title>node_504000000150&#45;&gt;node_5040000001D0</title>
<path fill="none" stroke="black" d="M171,-431.7C171,-423.98 171,-414.71 171,-406.11"/>
<polygon fill="black" stroke="black" points="174.5,-406.1 171,-396.1 167.5,-406.1 174.5,-406.1"/>
</g>
<!-- node_504000000010 -->
<g id="node4" class="node">
<title>node_504000000010</title>
<ellipse fill="#82e0aa" stroke="black" cx="27" cy="-306" rx="27" ry="18"/>
<text text-anchor="middle" x="27" y="-302.3" font-family="Times,serif" font-size="14.00">`a`</text>
</g>
<!-- node_504000000050&#45;&gt;node_504000000010 -->
<g id="edge3" class="edge">
<title>node_504000000050&#45;&gt;node_504000000010</title>
<path fill="none" stroke="black" d="M84.43,-362.83C74.25,-352.94 60.48,-339.55 48.97,-328.36"/>
<polygon fill="black" stroke="black" points="51.41,-325.85 41.8,-321.38 46.53,-330.87 51.41,-325.85"/>
</g>
<!-- node_5040000000D0 -->
<g id="node5" class="node">
<title>node_5040000000D0</title>
<ellipse fill="#f5b041" stroke="black" cx="99" cy="-306" rx="27" ry="18"/>
<text text-anchor="middle" x="99" y="-302.3" font-family="Times,serif" font-size="14.00">+</text>
</g>
<!-- node_504000000050&#45;&gt;node_5040000000D0 -->
<g id="edge4" class="edge">
<title>node_504000000050&#45;&gt;node_5040000000D0</title>
<path fill="none" stroke="black" d="M99,-359.7C99,-351.98 99,-342.71 99,-334.11"/>
<polygon fill="black" stroke="black" points="102.5,-334.1 99,-324.1 95.5,-334.1 102.5,-334.1"/>
</g>
<!-- node_504000000090 -->
<g id="node6" class="node">
<title>node_504000000090</title>
<ellipse fill="#5dade2" stroke="black" cx="27" cy="-234" rx="27" ry="18"/>
<text text-anchor="middle" x="27" y="-230.3" font-family="Times,serif" font-size="14.00">4</text>
</g>
<!-- node_5040000000D0&#45;&gt;node_504000000090 -->
<g id="edge5" class="edge">
<title>node_5040000000D0&#45;&gt;node_504000000090</title>
<path fill="none" stroke="black" d="M84.43,-290.83C74.25,-280.94 60.48,-267.55 48.97,-256.36"/>
<polygon fill="black" stroke="black" points="51.41,-253.85 41.8,-249.38 46.53,-258.87 51.41,-253.85"/>
</g>
<!-- node_504000000110 -->
<g id="node7" class="node">
<title>node_504000000110</title>
<ellipse fill="#5dade2" stroke="black" cx="99" cy="-234" rx="27" ry="18"/>
<text text-anchor="middle" x="99" y="-230.3" font-family="Times,serif" font-size="14.00">5</text>
</g>
<!-- node_5040000000D0&#45;&gt;node_504000000110 -->
<g id="edge6" class="edge">
<title>node_5040000000D0&#45;&gt;node_504000000110</title>
<path fill="none" stroke="black" d="M99,-287.7C99,-279.98 99,-270.71 99,-262.11"/>
<polygon fill="black" stroke="black" points="102.5,-262.1 99,-252.1 95.5,-262.1 102.5,-262.1"/>
</g>
<!-- node_504000000190 -->
<g id="node9" class="node">
<title>node_504000000190</title>
<ellipse fill="#82e0aa" stroke="black" cx="171" cy="-306" rx="27" ry="18"/>
<text text-anchor="middle" x="171" y="-302.3" font-family="Times,serif" font-size="14.00">`b`</text>
</g>
<!-- node_5040000001D0&#45;&gt;node_504000000190 -->
<g id="edge8" class="edge">
<title>node_5040000001D0&#45;&gt;node_504000000190</title>
<path fill="none" stroke="black" d="M171,-359.7C171,-351.98 171,-342.71 171,-334.11"/>
<polygon fill="black" stroke="black" points="174.5,-334.1 171,-324.1 167.5,-334.1 174.5,-334.1"/>
</g>
<!-- node_504000000250 -->
<g id="node10" class="node">
<title>node_504000000250</title>
<ellipse fill="#f5b041" stroke="black" cx="243" cy="-306" rx="27" ry="18"/>
<text text-anchor="middle" x="243" y="-302.3" font-family="Times,serif" font-size="14.00">&#45;</text>
</g>
<!-- node_5040000001D0&#45;&gt;node_504000000250 -->
<g id="edge9" class="edge">
<title>node_5040000001D0&#45;&gt;node_504000000250</title>
<path fill="none" stroke="black" d="M185.57,-362.83C195.75,-352.94 209.52,-339.55 221.03,-328.36"/>
<polygon fill="black" stroke="black" points="223.47,-330.87 228.2,-321.38 218.59,-325.85 223.47,-330.87"/>
</g>
<!-- node_504000000210 -->
<g id="node11" class="node">
<title>node_504000000210</title>
<ellipse fill="#5dade2" stroke="black" cx="171" cy="-234" rx="27" ry="18"/>
<text text-anchor="middle" x="171" y="-230.3" font-family="Times,serif" font-size="14.00">3</text>
</g>
<!-- node_504000000250&#45;&gt;node_504000000210 -->
<g id="edge10" class="edge">
<title>node_504000000250&#45;&gt;node_504000000210</title>
<path fill="none" stroke="black" d="M228.43,-290.83C218.25,-280.94 204.48,-267.55 192.97,-256.36"/>
<polygon fill="black" stroke="black" points="195.41,-253.85 185.8,-249.38 190.53,-258.87 195.41,-253.85"/>
</g>
<!-- node_504000000290 -->
<g id="node12" class="node">
<title>node_504000000290</title>
<ellipse fill="#5dade2" stroke="black" cx="243" cy="-234" rx="27" ry="18"/>
<text text-anchor="middle" x="243" y="-230.3" font-family="Times,serif" font-size="14.00">7</text>
</g>
<!-- node_504000000250&#45;&gt;node_504000000290 -->
<g id="edge11" class="edge">
<title>node_504000000250&#45;&gt;node_504000000290</title>
<path fill="none" stroke="black" d="M243,-287.7C243,-279.98 243,-270.71 243,-262.11"/>
<polygon fill="black" stroke="black" points="246.5,-262.1 243,-252.1 239.5,-262.1 246.5,-262.1"/>
</g>
<!-- node_504000000390 -->
<g id="node14" class="node">
<title>node_504000000390</title>
<ellipse fill="#82e0aa" stroke="black" cx="243" cy="-378" rx="27" ry="18"/>
<text text-anchor="middle" x="243" y="-374.3" font-family="Times,serif" font-size="14.00">`a`</text>
</g>
<!-- node_504000000310&#45;&gt;node_504000000390 -->
<g id="edge13" class="edge">
<title>node_504000000310&#45;&gt;node_504000000390</title>
<path fill="none" stroke="black" d="M243,-431.7C243,-423.98 243,-414.71 243,-406.11"/>
<polygon fill="black" stroke="black" points="246.5,-406.1 243,-396.1 239.5,-406.1 246.5,-406.1"/>
</g>
<!-- node_504000000710 -->
<g id="node15" class="node">
<title>node_504000000710</title>
<ellipse fill="#f5b041" stroke="black" cx="315" cy="-378" rx="27" ry="18"/>
<text text-anchor="middle" x="315" y="-374.3" font-family="Times,serif" font-size="14.00">;</text>
</g>
<!-- node_504000000310&#45;&gt;node_504000000710 -->
<g id="edge14" class="edge">
<title>node_504000000310&#45;&gt;node_504000000710</title>
<path fill="none" stroke="black" d="M257.57,-434.83C267.75,-424.94 281.52,-411.55 293.03,-400.36"/>
<polygon fill="black" stroke="black" points="295.47,-402.87 300.2,-393.38 290.59,-397.85 295.47,-402.87"/>
</g>
<!-- node_504000000610 -->
<g id="node16" class="node">
<title>node_504000000610</title>
<ellipse fill="#f5b041" stroke="black" cx="315" cy="-306" rx="27" ry="18"/>
<text text-anchor="middle" x="315" y="-302.3" font-family="Times,serif" font-size="14.00">;</text>
</g>
<!-- node_504000000710&#45;&gt;node_504000000610 -->
<g id="edge15" class="edge">
<title>node_504000000710&#45;&gt;node_504000000610</title>
<path fill="none" stroke="black" d="M315,-359.7C315,-351.98 315,-342.71 315,-334.11"/>
<polygon fill="black" stroke="black" points="318.5,-334.1 315,-324.1 311.5,-334.1 318.5,-334.1"/>
</g>
<!-- node_504000000490 -->
<g id="node17" class="node">
<title>node_504000000490</title>
<ellipse fill="#f5b041" stroke="black" cx="315" cy="-234" rx="27" ry="18"/>
<text text-anchor="middle" x="315" y="-230.3" font-family="Times,serif" font-size="14.00">=</text>
</g>
<!-- node_504000000610&#45;&gt;node_504000000490 -->
<g id="edge16" class="edge">
<title>node_504000000610&#45;&gt;node_504000000490</title>
<path fill="none" stroke="black" d="M315,-287.7C315,-279.98 315,-270.71 315,-262.11"/>
<polygon fill="black" stroke="black" points="318.5,-262.1 315,-252.1 311.5,-262.1 318.5,-262.1"/>
</g>
<!-- node_504000000690 -->
<g id="node24" class="node">
<title>node_504000000690</title>
<ellipse fill="#f5b041" stroke="black" cx="387" cy="-234" rx="27" ry="18"/>
<text text-anchor="middle" x="387" y="-230.3" font-family="Times,serif" font-size="14.00">:=</text>
</g>
<!-- node_504000000610&#45;&gt;node_504000000690 -->
<g id="edge23" class="edge">
<title>node_504000000610&#45;&gt;node_504000000690</title>
<path fill="none" stroke="black" d="M329.57,-290.83C339.75,-280.94 353.52,-267.55 365.03,-256.36"/>
<polygon fill="black" stroke="black" points="367.47,-258.87 372.2,-249.38 362.59,-253.85 367.47,-258.87"/>
</g>
<!-- node_504000000450 -->
<g id="node18" class="node">
<title>node_504000000450</title>
<ellipse fill="#82e0aa" stroke="black" cx="243" cy="-162" rx="27" ry="18"/>
<text text-anchor="middle" x="243" y="-158.3" font-family="Times,serif" font-size="14.00">`a`</text>
</g>
<!-- node_504000000490&#45;&gt;node_504000000450 -->
<g id="edge17" class="edge">
<title>node_504000000490&#45;&gt;node_504000000450</title>
<path fill="none" stroke="black" d="M300.43,-218.83C290.25,-208.94 276.48,-195.55 264.97,-184.36"/>
<polygon fill="black" stroke="black" points="267.41,-181.85 257.8,-177.38 262.53,-186.87 267.41,-181.85"/>
</g>
<!-- node_504000000590 -->
<g id="node19" class="node">
<title>node_504000000590</title>
<ellipse fill="#f5b041" stroke="black" cx="315" cy="-162" rx="27" ry="18"/>
<text text-anchor="middle" x="315" y="-158.3" font-family="Times,serif" font-size="14.00">+</text>
</g>
<!-- node_504000000490&#45;&gt;node_504000000590 -->
<g id="edge18" class="edge">
<title>node_504000000490&#45;&gt;node_504000000590</title>
<path fill="none" stroke="black" d="M315,-215.7C315,-207.98 315,-198.71 315,-190.11"/>
<polygon fill="black" stroke="black" points="318.5,-190.1 315,-180.1 311.5,-190.1 318.5,-190.1"/>
</g>
<!-- node_504000000510 -->
<g id="node20" class="node">
<title>node_504000000510</title>
<ellipse fill="#f5b041" stroke="black" cx="279" cy="-90" rx="27" ry="18"/>
<text text-anchor="middle" x="279" y="-86.3" font-family="Times,serif" font-size="14.00">*</text>
</g>
<!-- node_504000000590&#45;&gt;node_504000000510 -->
<g id="edge19" class="edge">
<title>node_504000000590&#45;&gt;node_504000000510</title>
<path fill="none" stroke="black" d="M306.65,-144.76C302.29,-136.28 296.85,-125.71 291.96,-116.2"/>
<polygon fill="black" stroke="black" points="294.99,-114.44 287.3,-107.15 288.77,-117.64 294.99,-114.44"/>
</g>
<!-- node_5040000005D0 -->
<g id="node23" class="node">
<title>node_5040000005D0</title>
<ellipse fill="#82e0aa" stroke="black" cx="351" cy="-90" rx="27" ry="18"/>
<text text-anchor="middle" x="351" y="-86.3" font-family="Times,serif" font-size="14.00">`b`</text>
</g>
<!-- node_504000000590&#45;&gt;node_5040000005D0 -->
<g id="edge22" class="edge">
<title>node_504000000590&#45;&gt;node_5040000005D0</title>
<path fill="none" stroke="black" d="M323.35,-144.76C327.71,-136.28 333.15,-125.71 338.04,-116.2"/>
<polygon fill="black" stroke="black" points="341.23,-117.64 342.7,-107.15 335.01,-114.44 341.23,-117.64"/>
</g>
<!-- node_5040000004D0 -->
<g id="node21" class="node">
<title>node_5040000004D0</title>
<ellipse fill="#5dade2" stroke="black" cx="243" cy="-18" rx="27" ry="18"/>
<text text-anchor="middle" x="243" y="-14.3" font-family="Times,serif" font-size="14.00">2</text>
</g>
<!-- node_504000000510&#45;&gt;node_5040000004D0 -->
<g id="edge20" class="edge">
<title>node_504000000510&#45;&gt;node_5040000004D0</title>
<path fill="none" stroke="black" d="M270.65,-72.76C266.29,-64.28 260.85,-53.71 255.96,-44.2"/>
<polygon fill="black" stroke="black" points="258.99,-42.44 251.3,-35.15 252.77,-45.64 258.99,-42.44"/>
</g>
<!-- node_504000000550 -->
<g id="node22" class="node">
<title>node_504000000550</title>
<ellipse fill="#82e0aa" stroke="black" cx="315" cy="-18" rx="27" ry="18"/>
<text text-anchor="middle" x="315" y="-14.3" font-family="Times,serif" font-size="14.00">`a`</text>
</g>
<!-- node_504000000510&#45;&gt;node_504000000550 -->
<g id="edge21" class="edge">
<title>node_504000000510&#45;&gt;node_504000000550</title>
<path fill="none" stroke="black" d="M287.35,-72.76C291.71,-64.28 297.15,-53.71 302.04,-44.2"/>
<polygon fill="black" stroke="black" points="305.23,-45.64 306.7,-35.15 299.01,-42.44 305.23,-45.64"/>
</g>
<!-- node_504000000650 -->
<g id="node25" class="node">
<title>node_504000000650</title>
<ellipse fill="#82e0aa" stroke="black" cx="387" cy="-162" rx="27" ry="18"/>
<text text-anchor="middle" x="387" y="-158.3" font-family="Times,serif" font-size="14.00">`x`</text>
</g>
<!-- node_504000000690&#45;&gt;node_504000000650 -->
<g id="edge24" class="edge">
<title>node_504000000690&#45;&gt;node_504000000650</title>
<path fill="none" stroke="black" d="M387,-215.7C387,-207.98 387,-198.71 387,-190.11"/>
<polygon fill="black" stroke="black" points="390.5,-190.1 387,-180.1 383.5,-190.1 390.5,-190.1"/>
</g>
<!-- node_5040000006D0 -->
<g id="node26" class="node">
<title>node_5040000006D0</title>
<ellipse fill="#5dade2" stroke="black" cx="459" cy="-162" rx="27" ry="18"/>
<text text-anchor="middle" x="459" y="-158.3" font-family="Times,serif" font-size="14.00">13</text>
</g>
<!-- node_504000000690&#45;&gt;node_5040000006D0 -->
<g id="edge25" class="edge">
<title>node_504000000690&#45;&gt;node_5040000006D0</title>
<path fill="none" stroke="black" d="M401.57,-218.83C411.75,-208.94 425.52,-195.55 437.03,-184.36"/>
<polygon fill="black" stroke="black" points="439.47,-186.87 444.2,-177.38 434.59,-181.85 439.47,-186.87"/>
</g>
</g>
</svg>
